# xmcd
#
# Track frame offsets:
#	150
#	19092
#	36584
#	54781
#	69705
#	85396
#	103734
#	118229
#	141363
#	156022
#
# Disc length: 2295 seconds
#
# Revision: 1
# Processed by: cddbd v1.5PL3 Copyright (c) Steve Scherf et al.
# Submitted via: EasyCDDAExtractor 5.0.6
#
DISCID=8c08f50a
DTITLE=Pepe Aguilar - Mis Baladas Consentidas - CD2
DYEAR=2003
DGENRE=
TTITLE0=Donde Estes Con Quien Estes
TTITLE1=Cien Años
TTITLE2=Hablame Claro
TTITLE3=El Rio Se Seco
TTITLE4=Este Terco Corazon
TTITLE5=Tus Mentiras
TTITLE6=Cuidado
TTITLE7=Algo De Mi
TTITLE8=Por Si Acaso
TTITLE9=Corazon Esteril
EXTD=
EXTT0=
EXTT1=
EXTT2=
EXTT3=
EXTT4=
EXTT5=
EXTT6=
EXTT7=
EXTT8=
EXTT9=
PLAYORDER=
